<?xml version="1.0" encoding="UTF-8" standalone="no"?>
<!-- Created with Inkscape (http://www.inkscape.org/) -->

<svg
   width="45"
   height="45"
   viewBox="0 0 11.90625 11.90625"
   version="1.1"
   id="svg5"
   inkscape:version="1.1.1 (3bf5ae0d25, 2021-09-20, custom)"
   sodipodi:docname="GitHubLogo.svg"
   xmlns:inkscape="http://www.inkscape.org/namespaces/inkscape"
   xmlns:sodipodi="http://sodipodi.sourceforge.net/DTD/sodipodi-0.dtd"
   xmlns="http://www.w3.org/2000/svg"
   xmlns:svg="http://www.w3.org/2000/svg">
  <sodipodi:namedview
     id="namedview7"
     pagecolor="#ffffff"
     bordercolor="#666666"
     borderopacity="1.0"
     inkscape:pageshadow="2"
     inkscape:pageopacity="0.0"
     inkscape:pagecheckerboard="0"
     inkscape:document-units="mm"
     showgrid="false"
     units="px"
     inkscape:snap-bbox="true"
     inkscape:snap-page="true"
     inkscape:bbox-paths="true"
     inkscape:bbox-nodes="true"
     inkscape:snap-bbox-edge-midpoints="true"
     inkscape:snap-bbox-midpoints="true"
     inkscape:snap-nodes="false"
     inkscape:snap-others="false"
     inkscape:snap-global="false"
     inkscape:zoom="5.0998985"
     inkscape:cx="24.020086"
     inkscape:cy="35.29482"
     inkscape:window-width="1366"
     inkscape:window-height="691"
     inkscape:window-x="0"
     inkscape:window-y="282"
     inkscape:window-maximized="1"
     inkscape:current-layer="layer1" />
  <defs
     id="defs2">
    <filter
       inkscape:collect="always"
       style="color-interpolation-filters:sRGB"
       id="filter1449"
       x="-0.074365021"
       y="-0.076147913"
       width="1.14873"
       height="1.1522958">
      <feGaussianBlur
         inkscape:collect="always"
         stdDeviation="0.35281003"
         id="feGaussianBlur1451" />
    </filter>
  </defs>
  <g
     inkscape:label="Layer 1"
     inkscape:groupmode="layer"
     id="layer1">
    <path
       style="opacity:0.510377;fill:#000000;stroke-width:0.0446071;filter:url(#filter1449)"
       d="M 4.007299,12.140671 C 2.629088,11.577472 1.591966,10.631164 0.94914397,9.3502994 c -0.415479,-0.827866 -0.57436,-1.517851 -0.575439,-2.498956 -0.001,-0.7694784 0.05379,-1.1537229 0.253719,-1.7842871 C 0.90561897,4.1896611 1.339285,3.4896477 2.04035,2.7863514 2.874307,1.9497406 3.776029,1.4622714 4.966356,1.2045585 c 0.495697,-0.1073221 1.690049,-0.1073221 2.18575,0 1.190327,0.2577129 2.092049,0.7451821 2.926006,1.5817929 0.496545,0.4981214 0.808094,0.920946 1.08887,1.4777755 0.763313,1.5137762 0.791826,3.4240055 0.07356,4.9276375 C 10.566466,10.60287 9.524318,11.580052 8.091553,12.144442 7.783441,12.26581 7.71339,12.271623 7.595552,12.185602 7.515172,12.126912 7.507232,12.04452 7.484803,11.036961 7.462353,10.027468 7.453423,9.9352574 7.357248,9.7187574 7.300378,9.5907274 7.225934,9.4628114 7.191823,9.4345004 7.090947,9.3507804 7.120193,9.3047824 7.274773,9.3040524 7.531031,9.3028524 8.1095,9.1320454 8.432876,8.9621144 9.287492,8.5130274 9.675977,7.7807134 9.682762,6.6060034 9.686362,5.9616412 9.589782,5.6336406 9.25957,5.1706756 9.129837,4.988783 9.127999,4.978805 9.18245,4.7518185 9.24823,4.4776559 9.21853,3.9236941 9.124,3.6619348 L 9.05958,3.4835059 8.819558,3.4886159 C 8.555277,3.4942359 8.200493,3.6269985 7.76034,3.8849659 L 7.488633,4.0442075 7.119641,3.9651767 C 6.60921,3.8558543 5.508627,3.8559931 4.997501,3.9654465 L 4.627177,4.0447452 4.362316,3.8838493 C 4.008739,3.6690616 3.408709,3.4531871 3.212289,3.470101 3.075424,3.481888 3.049047,3.504998 2.993354,3.6619306 2.899724,3.9257673 2.870607,4.4791762 2.936004,4.7518143 2.990464,4.9788008 2.988624,4.988779 2.858894,5.1706716 2.488477,5.6900079 2.374726,6.1799644 2.446908,6.9452334 c 0.09582,1.015891 0.511499,1.669298 1.303825,2.049483 0.225051,0.107987 0.523476,0.207841 0.750081,0.250979 0.206979,0.0394 0.402583,0.07866 0.434667,0.08723 0.0415,0.01108 0.02611,0.05788 -0.05316,0.161786 -0.06133,0.0804 -0.137743,0.244287 -0.169812,0.364182 C 4.642749,10.119716 4.516812,10.190261 4.05708,10.226032 3.623306,10.259782 3.363111,10.115304 3.00445,9.6415344 2.688391,9.2240364 2.374416,9.0234744 2.072363,9.0461244 c -0.229882,0.01723 -0.248568,0.09225 -0.06488,0.260443 0.408317,0.373872 0.491868,0.477873 0.671644,0.8360466 0.31945,0.636426 0.586809,0.781247 1.450847,0.785875 l 0.501828,0.0026 v 0.589372 c 0,0.558472 -0.0052,0.593013 -0.09914,0.658812 -0.128985,0.09035 -0.227286,0.08311 -0.52536,-0.03869 z"
       id="path147-3"
       transform="matrix(0.99276831,0,0,0.99276831,0.0438736,-0.26686156)" />
    <path
       style="fill:#ff2a2a;stroke-width:0.0446071"
       d="M 3.9174735,11.11546 C 2.5392623,10.552261 1.5021403,9.6059526 0.85931822,8.3250876 0.44383872,7.4972221 0.28495752,6.8072371 0.28387882,5.8261312 0.28284772,5.0566532 0.33766852,4.6724087 0.53759752,4.0418445 0.81579322,3.1644493 1.2494588,2.4644359 1.950524,1.7611396 2.7844814,0.92452882 3.6862035,0.43705955 4.8765295,0.17934665 c 0.495698,-0.10732208 1.690049,-0.10732208 2.185751,0 1.190327,0.2577129 2.092049,0.74518217 2.926006,1.58179295 0.4965445,0.4981214 0.8080935,0.920946 1.0888695,1.4777755 0.763313,1.5137762 0.791826,3.4240055 0.07356,4.9276373 -0.674076,1.4111072 -1.7162245,2.3882886 -3.1489885,2.9526786 -0.308112,0.121368 -0.378163,0.127181 -0.496002,0.04116 -0.08038,-0.05869 -0.08832,-0.141082 -0.110748,-1.148641 -0.02245,-1.009493 -0.03138,-1.1017039 -0.127555,-1.3182041 -0.05687,-0.1280298 -0.131314,-0.2559457 -0.165426,-0.2842569 -0.100875,-0.08372 -0.07163,-0.1297179 0.08295,-0.1304484 0.256258,-0.00117 0.834727,-0.1720072 1.158103,-0.3419381 0.854616,-0.4490868 1.2431,-1.1814007 1.249886,-2.3561108 0.0036,-0.6443673 -0.09298,-0.9723679 -0.423194,-1.4353329 -0.129733,-0.1818926 -0.131571,-0.1918706 -0.07712,-0.4188571 0.06577,-0.2741626 0.03607,-0.8281244 -0.05845,-1.0898837 l -0.06442,-0.1784289 -0.240022,0.00511 c -0.264278,0.00563 -0.619063,0.1383841 -1.059215,0.3963515 l -0.271707,0.1592421 -0.368993,-0.079031 c -0.51043,-0.1093224 -1.611013,-0.1091836 -2.12214,2.698e-4 l -0.370324,0.079299 -0.26486,-0.1608959 C 3.9189125,2.6438498 3.318883,2.4279753 3.1224633,2.4448892 2.9855975,2.4566762 2.9592213,2.4797862 2.9035275,2.6367188 2.8098975,2.9005555 2.7807812,3.4539644 2.8461825,3.7266025 2.9006375,3.953589 2.8988005,3.9635672 2.7690665,4.1454598 2.3986498,4.6647961 2.2848986,5.1547528 2.3570807,5.9200219 c 0.095819,1.0158912 0.5114988,1.6692982 1.3038248,2.0494829 0.225051,0.1079868 0.523477,0.2078409 0.750081,0.2509793 0.206979,0.039403 0.402584,0.07866 0.434668,0.087235 0.0415,0.011084 0.02611,0.057877 -0.05316,0.1617856 -0.06133,0.080406 -0.137744,0.2442871 -0.169812,0.3641819 -0.069754,0.2608236 -0.195695,0.331368 -0.655427,0.367139 C 3.5334812,9.2345806 3.2732859,9.090098 2.9146253,8.6163273 2.5985658,8.1988293 2.2845913,7.9982681 1.982538,8.020918 1.7526564,8.03815 1.7339698,8.113164 1.917659,8.2813603 c 0.4083165,0.3738729 0.4918676,0.4778734 0.6716442,0.8360471 0.31945,0.6364269 0.5868084,0.7812479 1.4508476,0.7858759 l 0.501827,0.0026 v 0.5893717 c 0,0.558472 -0.0052,0.593013 -0.09914,0.658812 -0.128985,0.09035 -0.227285,0.08311 -0.52536,-0.03869 z"
       id="path147" />
  </g>
</svg>
